<?xml version="1.0" encoding="UTF-8" standalone="no"?>
<svg
   inkscape:export-ydpi="96"
   inkscape:export-xdpi="96"
   inkscape:export-filename="TW5.2.3.png"
   sodipodi:docname="TW5.2.3-cat.svg"
   inkscape:version="1.2 (dc2aedaf03, 2022-05-15)"
   id="svg16"
   version="1.1"
   viewBox="0 0 148.16667 83.343752"
   height="315"
   width="560"
   xml:space="preserve"
   xmlns:inkscape="http://www.inkscape.org/namespaces/inkscape"
   xmlns:sodipodi="http://sodipodi.sourceforge.net/DTD/sodipodi-0.dtd"
   xmlns="http://www.w3.org/2000/svg"
   xmlns:svg="http://www.w3.org/2000/svg"
   xmlns:rdf="http://www.w3.org/1999/02/22-rdf-syntax-ns#"
   xmlns:cc="http://creativecommons.org/ns#"
   xmlns:dc="http://purl.org/dc/elements/1.1/"><defs
     id="defs10" /><sodipodi:namedview
     inkscape:window-maximized="1"
     inkscape:window-y="-8"
     inkscape:window-x="-8"
     inkscape:window-height="837"
     inkscape:window-width="1600"
     units="px"
     showgrid="false"
     inkscape:document-rotation="0"
     inkscape:current-layer="g1741"
     inkscape:document-units="px"
     inkscape:cy="124"
     inkscape:cx="164"
     inkscape:zoom="1"
     inkscape:pageshadow="2"
     inkscape:pageopacity="0.0"
     borderopacity="1.0"
     bordercolor="#666666"
     pagecolor="#ffffff"
     id="base"
     inkscape:showpageshadow="2"
     inkscape:pagecheckerboard="0"
     inkscape:deskcolor="#d1d1d1" /><metadata
     id="metadata13"><rdf:RDF><cc:Work
         rdf:about=""><dc:format>image/svg+xml</dc:format><dc:type
           rdf:resource="http://purl.org/dc/dcmitype/StillImage" /></cc:Work></rdf:RDF></metadata><g
     style="display:inline"
     id="layer1"
     inkscape:groupmode="layer"
     inkscape:label="Layer 1"><text
       transform="scale(0.9805776,1.0198071)"
       xml:space="preserve"
       style="font-style:normal;font-variant:normal;font-weight:normal;font-stretch:normal;font-size:18.3444px;line-height:1.25;font-family:'Arial Rounded MT Bold';-inkscape-font-specification:'Arial Rounded MT Bold, Normal';letter-spacing:0px;fill:#800000;fill-opacity:1;stroke:none;stroke-width:0.269681;stroke-opacity:0.854902;font-variant-ligatures:normal;font-variant-caps:normal;font-variant-numeric:normal;font-variant-east-asian:normal"
       x="51.489902"
       y="29.746794"
       id="text1220"><tspan
         rotate="0 0 0 0 0"
         sodipodi:role="line"
         id="tspan1218"
         x="51.489902"
         y="29.746794"
         style="font-style:normal;font-variant:normal;font-weight:normal;font-stretch:normal;font-size:18.34444488px;font-family:'Arial Rounded MT Bold';-inkscape-font-specification:'Arial Rounded MT Bold, Normal';fill:#800000;fill-opacity:1;stroke:none;stroke-width:0.269681;stroke-opacity:0.854902;font-variant-ligatures:normal;font-variant-caps:normal;font-variant-numeric:normal;font-variant-east-asian:normal">TiddlyWiki</tspan></text><text
       transform="scale(1.0246477,0.9759452)"
       id="text1234"
       y="57.448151"
       x="47.791267"
       style="font-style:normal;font-variant:normal;font-weight:normal;font-stretch:normal;font-size:30.7252px;line-height:1.25;font-family:'Arial Rounded MT Bold';-inkscape-font-specification:'Arial Rounded MT Bold, Normal';font-variant-ligatures:normal;font-variant-caps:normal;font-variant-numeric:normal;font-variant-east-asian:normal;fill:#800000;fill-opacity:1;stroke:none;stroke-width:0.271105"
       xml:space="preserve"><tspan
         style="font-style:normal;font-variant:normal;font-weight:normal;font-stretch:normal;font-size:30.7252px;font-family:'Arial Rounded MT Bold';-inkscape-font-specification:'Arial Rounded MT Bold, Normal';font-variant-ligatures:normal;font-variant-caps:normal;font-variant-numeric:normal;font-variant-east-asian:normal;fill:#800000;stroke-width:0.271105"
         y="57.448151"
         x="47.791267"
         id="tspan1232"
         sodipodi:role="line">v5.2.3</tspan></text><g
       id="g475"
       transform="matrix(0.26458334,0,0,0.26458334,37.757544,9.788645)"><g
         id="g424">
</g><g
         id="g426">
</g><g
         id="g428">
</g><g
         id="g430">
</g><g
         id="g432">
</g><g
         id="g434">
</g><g
         id="g436">
</g><g
         id="g438">
</g><g
         id="g440">
</g><g
         id="g442">
</g><g
         id="g444">
</g><g
         id="g446">
</g><g
         id="g448">
</g><g
         id="g450">
</g><g
         id="g452">
</g></g><g
       id="g1741"
       transform="matrix(1.3317361,0,0,1.3934722,5.5474308,14.746112)"
       style="fill:#666666"><g
         id="Layer_2"
         style="fill:#666666" /><g
         id="Layer_3"
         style="fill:#666666" /><g
         id="Layer_4"
         style="fill:#666666" /><g
         id="Layer_5"
         style="fill:#666666" /><g
         id="Layer_6"
         style="fill:#666666" /><g
         id="Layer_7"
         style="fill:#666666" /><g
         id="Layer_8"
         style="fill:#666666" /><g
         id="Layer_9"
         style="fill:#666666" /><g
         id="Layer_10"
         style="fill:#666666" /><g
         id="Layer_11"
         style="fill:#666666" /><g
         id="Layer_12"
         style="fill:#666666" /><g
         id="Layer_13"
         style="fill:#666666" /><g
         id="Layer_14"
         style="fill:#666666" /><g
         id="Layer_15"
         style="fill:#666666" /><g
         id="Layer_16"
         style="fill:#666666" /><g
         id="Layer_17"
         style="fill:#666666" /><g
         id="Layer_18"
         style="fill:#666666" /><g
         id="Layer_19"
         style="fill:#666666" /><g
         id="Layer_20"
         style="fill:#666666" /><g
         id="Layer_21"
         style="fill:#666666" /><g
         id="Layer_22"
         style="fill:#666666" /><g
         id="Layer_23"
         style="fill:#666666" /><g
         id="g1643"
         style="fill:#666666"><path
           d="m 17.7998,13.75 c -0.2813,0 -0.5615,-0.1187 -0.7588,-0.3491 -0.3599,-0.4194 -0.3115,-1.0508 0.1084,-1.4102 l 8.6904,-7.4502 c 0.4189,-0.3579 1.0508,-0.3101 1.4092,0.1084 0.3604,0.4194 0.3115,1.0508 -0.1084,1.4102 l -8.6904,7.4502 C 18.2617,13.6709 18.0303,13.75 17.7998,13.75 Z"
           fill="#00acba"
           id="path1641"
           style="fill:#666666" /></g><g
         id="g1647"
         style="fill:#666666"><path
           d="m 26.4902,27.7002 c -0.2305,0 -0.4619,-0.0791 -0.6504,-0.2407 l -8.6904,-7.4502 c -0.4199,-0.3594 -0.4683,-0.9907 -0.1084,-1.4102 0.3594,-0.4194 0.9912,-0.4668 1.4092,-0.1084 l 8.6904,7.4502 c 0.4199,0.3594 0.4688,0.9907 0.1084,1.4102 -0.1972,0.2304 -0.4775,0.3491 -0.7588,0.3491 z"
           fill="#00acba"
           id="path1645"
           style="fill:#666666" /></g><g
         id="g1651"
         style="fill:#666666"><path
           d="m 7.1201,23.8799 c -0.2559,0 -0.5117,-0.0977 -0.707,-0.293 -0.3906,-0.3906 -0.3906,-1.0234 0,-1.4141 L 9.7529,18.833 c 0.3906,-0.3906 1.0234,-0.3906 1.4141,0 0.3907,0.3906 0.3906,1.0234 0,1.4141 l -3.3398,3.3398 c -0.1954,0.1953 -0.4512,0.293 -0.7071,0.293 z"
           fill="#00acba"
           id="path1649"
           style="fill:#666666" /></g><g
         id="g1655"
         style="fill:#666666"><path
           d="m 10.46,13.46 c -0.2559,0 -0.5117,-0.0977 -0.707,-0.293 L 6.4131,9.8271 c -0.3906,-0.3906 -0.3906,-1.0234 0,-1.4141 0.3906,-0.3907 1.0234,-0.3906 1.4141,0 l 3.3398,3.3398 c 0.3906,0.3906 0.3906,1.0234 0,1.4141 -0.1953,0.1954 -0.4512,0.2931 -0.707,0.2931 z"
           fill="#00acba"
           id="path1653"
           style="fill:#666666" /></g><g
         id="g1659"
         style="fill:#666666"><path
           d="m 24,17 h -5 c -0.5527,0 -1,-0.4478 -1,-1 0,-0.5522 0.4473,-1 1,-1 h 5 c 0.5527,0 1,0.4478 1,1 0,0.5522 -0.4473,1 -1,1 z"
           fill="#00acba"
           id="path1657"
           style="fill:#666666" /></g><g
         id="g1663"
         style="fill:#800000"><path
           d="M 14,22 C 12.4043,22 10.8975,21.3789 9.7568,20.251 8.6211,19.1025 8,17.5957 8,16 8,14.4043 8.6211,12.8975 9.749,11.7568 10.8975,10.6211 12.4043,10 14,10 c 1.75,0 3.4111,0.7646 4.5576,2.0981 C 19.4873,13.1763 20,14.5625 20,16 20,17.4375 19.4873,18.8237 18.5576,19.9028 17.4111,21.2354 15.75,22 14,22 Z m 0,-10 c -1.0654,0 -2.0732,0.416 -2.8369,1.1709 C 10.416,13.9268 10,14.9346 10,16 c 0,1.0654 0.416,2.0732 1.1709,2.8369 C 11.9268,19.584 12.9346,20 14,20 15.167,20 16.2754,19.4888 17.042,18.5981 17.6602,17.8809 18,16.9585 18,16 18,15.0415 17.6602,14.1191 17.042,13.4028 16.2754,12.5112 15.167,12 14,12 Z"
           fill="#0181b0"
           id="path1661"
           style="fill:#800000" /></g><g
         id="g1667"
         style="fill:#2828a8;fill-opacity:1"><path
           d="M 5,11 C 2.7944,11 1,9.2056 1,7 1,4.7944 2.7944,3 5,3 7.2056,3 9,4.7944 9,7 9,9.2056 7.2056,11 5,11 Z M 5,5 C 3.897,5 3,5.897 3,7 3,8.103 3.897,9 5,9 6.103,9 7,8.103 7,7 7,5.897 6.103,5 5,5 Z"
           fill="#f5d803"
           id="path1665"
           style="fill:#2828a8;fill-opacity:1" /></g><g
         id="g1671"
         style="fill:#ffd014;fill-opacity:1"><path
           d="m 28,7 c -1.6543,0 -3,-1.3457 -3,-3 0,-1.6543 1.3457,-3 3,-3 1.6543,0 3,1.3457 3,3 0,1.6543 -1.3457,3 -3,3 z m 0,-4 c -0.5518,0 -1,0.4487 -1,1 0,0.5513 0.4482,1 1,1 0.5518,0 1,-0.4487 1,-1 0,-0.5513 -0.4482,-1 -1,-1 z"
           fill="#f5d803"
           id="path1669"
           style="fill:#ffd014;fill-opacity:1" /></g><g
         id="g1675"
         style="fill:#d40000;fill-opacity:1"><path
           d="m 26,19 c -1.6543,0 -3,-1.3457 -3,-3 0,-1.6543 1.3457,-3 3,-3 1.6543,0 3,1.3457 3,3 0,1.6543 -1.3457,3 -3,3 z m 0,-4 c -0.5518,0 -1,0.4487 -1,1 0,0.5513 0.4482,1 1,1 0.5518,0 1,-0.4487 1,-1 0,-0.5513 -0.4482,-1 -1,-1 z"
           fill="#f5d803"
           id="path1673"
           style="fill:#d40000;fill-opacity:1" /></g><g
         id="g1679"
         style="fill:#008000"><path
           d="m 28,31 c -1.6543,0 -3,-1.3457 -3,-3 0,-1.6543 1.3457,-3 3,-3 1.6543,0 3,1.3457 3,3 0,1.6543 -1.3457,3 -3,3 z m 0,-4 c -0.5518,0 -1,0.4487 -1,1 0,0.5513 0.4482,1 1,1 0.5518,0 1,-0.4487 1,-1 0,-0.5513 -0.4482,-1 -1,-1 z"
           fill="#f5d803"
           id="path1677"
           style="fill:#008000" /></g><g
         id="g1683"
         style="fill:#ff6600"><path
           d="m 5,29 c -2.2056,0 -4,-1.7944 -4,-4 0,-2.2056 1.7944,-4 4,-4 2.2056,0 4,1.7944 4,4 0,2.2056 -1.7944,4 -4,4 z m 0,-6 c -1.103,0 -2,0.897 -2,2 0,1.103 0.897,2 2,2 1.103,0 2,-0.897 2,-2 0,-1.103 -0.897,-2 -2,-2 z"
           fill="#f5d803"
           id="path1681"
           style="fill:#ff6600" /></g><g
         id="Layer_25"
         style="fill:#666666" /><g
         id="Layer_26"
         style="fill:#666666" /></g></g><style
     type="text/css"
     id="style1503">
	.st0{fill:#2B79C2;}
	.st1{fill:#3B4652;}
</style></svg>
