<?xml version="1.0" encoding="UTF-8" standalone="no"?>
<svg
   inkscape:export-ydpi="96"
   inkscape:export-xdpi="96"
   inkscape:export-filename="TW5.2.3-motovun.png"
   sodipodi:docname="TW5.2.3.svg"
   inkscape:version="1.2 (dc2aedaf03, 2022-05-15)"
   id="svg16"
   version="1.1"
   viewBox="0 0 148.16667 83.343752"
   height="315"
   width="560"
   xml:space="preserve"
   xmlns:inkscape="http://www.inkscape.org/namespaces/inkscape"
   xmlns:sodipodi="http://sodipodi.sourceforge.net/DTD/sodipodi-0.dtd"
   xmlns="http://www.w3.org/2000/svg"
   xmlns:svg="http://www.w3.org/2000/svg"
   xmlns:rdf="http://www.w3.org/1999/02/22-rdf-syntax-ns#"
   xmlns:cc="http://creativecommons.org/ns#"
   xmlns:dc="http://purl.org/dc/elements/1.1/"><defs
     id="defs10" /><sodipodi:namedview
     inkscape:window-maximized="1"
     inkscape:window-y="-8"
     inkscape:window-x="-8"
     inkscape:window-height="837"
     inkscape:window-width="1600"
     units="px"
     showgrid="false"
     inkscape:document-rotation="0"
     inkscape:current-layer="layer1"
     inkscape:document-units="px"
     inkscape:cy="124"
     inkscape:cx="104"
     inkscape:zoom="1"
     inkscape:pageshadow="2"
     inkscape:pageopacity="0.0"
     borderopacity="1.0"
     bordercolor="#666666"
     pagecolor="#ffffff"
     id="base"
     inkscape:showpageshadow="2"
     inkscape:pagecheckerboard="0"
     inkscape:deskcolor="#d1d1d1" /><metadata
     id="metadata13"><rdf:RDF><cc:Work
         rdf:about=""><dc:format>image/svg+xml</dc:format><dc:type
           rdf:resource="http://purl.org/dc/dcmitype/StillImage" /></cc:Work></rdf:RDF></metadata><g
     style="display:inline"
     id="layer1"
     inkscape:groupmode="layer"
     inkscape:label="Layer 1"><text
       transform="scale(0.9805776,1.0198071)"
       xml:space="preserve"
       style="font-style:normal;font-variant:normal;font-weight:normal;font-stretch:normal;font-size:17.9788px;line-height:1.25;font-family:'Arial Rounded MT Bold';-inkscape-font-specification:'Arial Rounded MT Bold, Normal';letter-spacing:0px;fill:#aa0000;fill-opacity:1;stroke:none;stroke-width:0.269681;stroke-opacity:0.854902;font-variant-ligatures:normal;font-variant-caps:normal;font-variant-numeric:normal;font-variant-east-asian:normal"
       x="51.489902"
       y="29.746794"
       id="text1220"><tspan
         rotate="0 0 0 0 0"
         sodipodi:role="line"
         id="tspan1218"
         x="51.489902"
         y="29.746794"
         style="font-style:normal;font-variant:normal;font-weight:normal;font-stretch:normal;font-size:17.97880047px;font-family:'Arial Rounded MT Bold';-inkscape-font-specification:'Arial Rounded MT Bold, Normal';fill:#aa0000;fill-opacity:1;stroke:none;stroke-width:0.269681;stroke-opacity:0.854902;font-variant-ligatures:normal;font-variant-caps:normal;font-variant-numeric:normal;font-variant-east-asian:normal">TiddlyWiki</tspan></text><text
       transform="scale(1.0246477,0.9759452)"
       id="text1234"
       y="56.905941"
       x="47.791267"
       style="font-style:normal;font-variant:normal;font-weight:normal;font-stretch:normal;font-size:30.7252px;line-height:1.25;font-family:'Arial Rounded MT Bold';-inkscape-font-specification:'Arial Rounded MT Bold, Normal';fill:#aa0000;fill-opacity:1;stroke:none;stroke-width:0.271105;font-variant-ligatures:normal;font-variant-caps:normal;font-variant-numeric:normal;font-variant-east-asian:normal"
       xml:space="preserve"><tspan
         style="font-style:normal;font-variant:normal;font-weight:normal;font-stretch:normal;font-size:30.72520047px;font-family:'Arial Rounded MT Bold';-inkscape-font-specification:'Arial Rounded MT Bold, Normal';fill:#aa0000;stroke-width:0.271105;font-variant-ligatures:normal;font-variant-caps:normal;font-variant-numeric:normal;font-variant-east-asian:normal"
         y="56.905941"
         x="47.791267"
         id="tspan1232"
         sodipodi:role="line">v5.2.3</tspan></text><g
       id="g475"
       transform="matrix(0.26458334,0,0,0.26458334,37.757544,9.788645)"><g
         id="g424">
</g><g
         id="g426">
</g><g
         id="g428">
</g><g
         id="g430">
</g><g
         id="g432">
</g><g
         id="g434">
</g><g
         id="g436">
</g><g
         id="g438">
</g><g
         id="g440">
</g><g
         id="g442">
</g><g
         id="g444">
</g><g
         id="g446">
</g><g
         id="g448">
</g><g
         id="g450">
</g><g
         id="g452">
</g></g><g
       id="g567"
       transform="matrix(0.09459562,0,0,0.08834512,2.9545232,16.210798)"
       style="fill:#333333"><path
         d="M 460.877,33.873 456.299,18.177 C 454.673,12.603 450.775,7.891 445.604,5.251 440.432,2.611 434.329,2.216 428.86,4.169 c -7.014,2.505 -12.249,8.604 -13.663,15.918 l -22.462,116.255 -38.086,-43.08 6.595,-17.584 c 4.136,-11.027 3.347,-23.321 -2.164,-33.73 -5.233,-9.887 -15.021,-16.249 -26.183,-17.019 l -17.17,-1.184 c -9.806,-0.679 -19.721,1.955 -27.904,7.411 L 265.44,46.078 228.422,33.738 c -2.616,-0.871 -5.495,-0.239 -7.504,1.646 -2.01,1.886 -2.823,4.721 -2.119,7.385 l 16.564,62.711 c 3.085,11.678 7.486,23.027 13.081,33.73 l 13.646,26.105 c -64.123,28.92 -108.152,89.435 -115.653,159.819 l -3.323,31.187 c -0.919,8.624 -5.238,16.261 -12.162,21.503 -6.937,5.252 -15.729,7.614 -24.747,6.646 -39.004,-4.179 -58.872,-23.616 -63.236,-30.753 -7.621,-12.464 -4.663,-33.98 8.329,-60.585 12.473,-25.539 12.484,-34.239 8.666,-39.446 -2.232,-3.044 -5.938,-4.505 -9.916,-3.91 -8.006,1.202 -17.575,10.996 -24.193,19 -8.986,10.87 -16.232,23.117 -19.879,33.6 -7.177,20.634 -7.903,40.841 -2.101,58.436 7.011,21.257 23.075,38.48 47.748,51.191 52.739,27.168 102.604,30.831 144.428,30.831 h 26.036 c 6.144,10.001 17.163,16.499 29.474,16.499 h 109.481 c 2.446,0 4.739,-1.193 6.143,-3.197 1.404,-2.004 1.742,-4.566 0.906,-6.866 -4.573,-12.574 -15.123,-21.778 -28.222,-24.621 -33.329,-7.231 -48.969,-13.778 -54.658,-17.573 13.178,-16.199 20.905,-34.121 22.626,-52.134 l 16.673,-14.142 40.054,95.845 c 5.761,13.782 19.135,22.688 34.072,22.688 h 26.901 c 4.143,0 7.5,-3.358 7.5,-7.5 0,-18.292 -12.967,-33.574 -30.934,-36.592 L 382.18,287.164 c 3.483,-13.703 11.529,-28.815 23.934,-44.945 6.979,-9.075 11.546,-19.361 13.761,-30.023 9.403,-2.402 26.268,-10.888 32.503,-40.82 0.115,-0.556 0.168,-1.122 0.155,-1.689 -1.18,-55.483 6.034,-102.23 9.189,-119.752 0.962,-5.316 0.668,-10.87 -0.845,-16.062 z m -66.652,199.203 c -4.188,5.447 -7.922,10.815 -11.216,16.097 l 0.529,-20.636 c 0.106,-4.141 -3.164,-7.584 -7.305,-7.69 -4.105,-0.088 -7.584,3.165 -7.689,7.305 0,0 -1.481,59.41 -1.414,59.842 l 20.999,134.993 c 0.504,3.241 3.056,5.778 6.299,6.264 l 4.782,0.717 c 8.309,1.247 14.883,6.877 17.545,14.364 h -18.118 c -8.87,0 -16.812,-5.288 -20.232,-13.472 L 301.966,247.95 c -1.597,-3.822 -5.992,-5.626 -9.812,-4.028 -3.822,1.597 -5.626,5.99 -4.028,9.812 l 30.316,72.543 -11.088,9.405 c -3.177,-21.47 -14.95,-39.942 -32.36,-50.719 -35.132,-21.748 -88.271,12.126 -90.517,13.579 -3.478,2.25 -4.473,6.894 -2.223,10.371 2.251,3.479 6.896,4.471 10.371,2.223 13.076,-8.461 51.943,-27.365 74.474,-13.419 13.728,8.498 23.012,23.252 25.472,40.48 3.061,21.433 -4.965,44.026 -22.6,63.62 -1.584,1.76 -2.243,4.166 -1.779,6.488 1.563,7.817 10.099,13.878 28.54,20.269 13.162,4.561 28.994,8.354 39.957,10.733 3.869,0.839 7.375,2.583 10.283,5.025 h -95.411 c -9.433,0 -17.531,-6.73 -19.257,-16.004 l -7.882,-42.364 c -0.757,-4.072 -4.67,-6.756 -8.745,-6.001 -4.072,0.758 -6.759,4.673 -6.001,8.746 l 7.279,39.125 H 196.05 c -42.039,0 -87.801,-3.533 -137.559,-29.166 -21.054,-10.846 -34.637,-25.163 -40.372,-42.554 -4.761,-14.437 -4.062,-31.315 2.023,-48.81 5.069,-14.575 16.672,-29.381 24.812,-37.184 -1.372,3.835 -3.582,9.154 -7.136,16.43 -10.838,22.192 -20.963,53.217 -7.647,74.992 6.76,11.055 31.017,33.19 74.436,37.843 12.83,1.373 25.404,-2.036 35.399,-9.602 10.26,-7.768 16.661,-19.088 18.023,-31.873 l 3.323,-31.187 c 6.964,-65.352 47.996,-121.499 107.698,-148.092 l 5.849,11.188 c 1.919,3.671 6.452,5.092 10.121,3.172 3.671,-1.919 5.091,-6.45 3.172,-10.121 l -26.456,-50.61 c -5.077,-9.714 -9.071,-20.014 -11.872,-30.613 l -13.02,-49.291 27.33,9.11 c 2.194,0.731 4.605,0.409 6.532,-0.875 l 25.435,-16.957 c 5.44,-3.627 12.02,-5.375 18.553,-4.927 l 17.17,1.184 c 5.949,0.41 11.167,3.802 13.957,9.072 3.504,6.618 4.005,14.435 1.376,21.445 L 344.24,78.3 c -2.305,6.129 -7.737,10.663 -14.182,11.835 l -34.854,6.337 c -4.075,0.741 -6.778,4.646 -6.037,8.721 0.658,3.622 3.815,6.16 7.37,6.16 0.445,0 0.897,-0.04 1.351,-0.123 l 34.854,-6.337 c 3.291,-0.598 6.427,-1.699 9.338,-3.199 l 49.509,56.001 c 18.781,21.243 19.889,52.945 2.636,75.381 z m 52.739,-185.8 c -3.22,17.875 -10.557,65.4 -9.442,121.855 -3.504,15.954 -10.524,23.133 -16.102,26.366 -0.327,-15.943 -5.743,-31.771 -16.172,-44.844 L 429.924,22.934 c 0.412,-2.131 1.938,-3.908 3.98,-4.638 1.617,-0.577 3.351,-0.465 4.879,0.315 1.528,0.78 2.635,2.118 3.115,3.766 l 4.578,15.696 c 0.868,2.975 1.036,6.157 0.488,9.203 z"
         id="path514"
         style="fill:#333333" /><g
         id="g516"
         style="fill:#333333">
</g><g
         id="g518"
         style="fill:#333333">
</g><g
         id="g520"
         style="fill:#333333">
</g><g
         id="g522"
         style="fill:#333333">
</g><g
         id="g524"
         style="fill:#333333">
</g><g
         id="g526"
         style="fill:#333333">
</g><g
         id="g528"
         style="fill:#333333">
</g><g
         id="g530"
         style="fill:#333333">
</g><g
         id="g532"
         style="fill:#333333">
</g><g
         id="g534"
         style="fill:#333333">
</g><g
         id="g536"
         style="fill:#333333">
</g><g
         id="g538"
         style="fill:#333333">
</g><g
         id="g540"
         style="fill:#333333">
</g><g
         id="g542"
         style="fill:#333333">
</g><g
         id="g544"
         style="fill:#333333">
</g></g></g></svg>
